<svg xmlns="http://www.w3.org/2000/svg" xmlns:xlink="http://www.w3.org/1999/xlink" xmlns:inkscape="http://www.inkscape.org/namespaces/inkscape" version="1.1" width="375" height="375" viewBox="0 0 375 375">
<defs>
<clipPath id="clip_0">
<path transform="matrix(.24,0,0,.24,0,0)" d="M0 0H1562.5V1562.5H0Z" clip-rule="evenodd"/>
</clipPath>
<clipPath id="clip_1">
<path transform="matrix(.24,0,0,.24,0,0)" d="M0 0H1562.5V1562.5H0Z" clip-rule="evenodd"/>
</clipPath>
<clipPath id="clip_2">
<path transform="matrix(.24,0,0,.24,0,0)" d="M287.52354 303.68186H1275.0236V1259.9319H287.52354Z" clip-rule="evenodd"/>
</clipPath>
</defs>
<g clip-path="url(#clip_2)">
<path transform="matrix(.4736167,0,0,.4736167,69.09562,72.883647)" d="M249.95 484.04C248.83 484.02003 222.44 483.46003 200.87 473.14H15.02L25.14 449.05003 30.58 451.34004 23.9 467.24003H202.23L202.84 467.54C223.34999 477.58003 249.78 478.13 250.04999 478.14L249.95 484.04Z" fill="#f4f6fc"/>
<path transform="matrix(.4736167,0,0,.4736167,69.09562,72.883647)" d="M250 473.6H249.95C248.81999 473.58003 221.93 473.01 200.25 462.4L202.84 457.1C222.89 466.91 248.68 467.67 250 467.7 251.31 467.67 277.1 466.92 297.16 457.1L299.75 462.4C278.07 473.00999 251.18 473.58 250.05 473.6H250Z" fill="#f4f6fc"/>
<path transform="matrix(.4736167,0,0,.4736167,69.09562,72.883647)" d="M250.05 484.04 249.95 478.14C250.22 478.14 276.68 477.56004 297.16 467.54L297.77 467.24003H476.1L469.42 451.34004 474.86003 449.05003 484.98 473.14H299.13C277.56 483.47 251.17 484.02 250.05 484.04Z" fill="#f4f6fc"/>
<path transform="matrix(.4736167,0,0,.4736167,69.09562,72.883647)" d="M252.95 438.47 248.25 435C201.97 400.88 175.14 407.91 138.01001 417.63 106.29001 425.94 66.80001 436.27003 3.4400025 420.85L0 420.02 79.65 241.44998 81.94 241.87998C120.56 249.16997 149.6 241.86998 172.93 236.00998 205.48999 227.82999 229.01 221.91999 252.53 261.15998L252.95 261.86V438.47ZM183.25 403.77C202.07 403.77 222.01 409.43 247.05 426.88V263.5C225.95 228.78 206.48001 233.67 174.37 241.73 150.94 247.62 121.89 254.92 83.13999 248.09L8.28 415.94C68.13 429.83003 104.42 420.32 136.51 411.92 152.84 407.65 167.67 403.77 183.25 403.77Z" fill="#f4f6fc"/>
<path transform="matrix(.4736167,0,0,.4736167,69.09562,72.883647)" d="M252.95 462.7H33.41L1.76 419.74 6.51 416.24 36.39 456.8H247.05V432.63H252.95V462.7Z" fill="#f4f6fc"/>
<path transform="matrix(.4736167,0,0,.4736167,69.09562,72.883647)" d="M69.39 409.44C56.16 409.44 40.48 407.85 31.869999 401.32L35.44 396.62C49.129999 407 92.56 404.75 124.53 396.13L126.07 401.83003C110.35 406.07 91.05 408.88 74.46 409.36003 72.82 409.42 71.12 409.44 69.39 409.44Z" fill="#f4f6fc"/>
<path transform="matrix(.4736167,0,0,.4736167,69.09562,72.883647)" d="M77.85 390.09C63.64 390.09 51.479997 387.68 41.489999 382.85L44.059999 377.54C63.469999 386.92 92.11 386.41 129.18 376.04L130.76999 381.72C110.82 387.3 93.14 390.09 77.85 390.09Z" fill="#f4f6fc"/>
<path transform="matrix(.4736167,0,0,.4736167,69.09562,72.883647)" d="M80.4 372.69C69.25 372.69 58.230005 371.08003 47.550004 367.07L49.630006 361.55003C76.19 371.53004 105.61 365.56004 133.46 357.62004L135.08 363.29005C117.19 368.39 98.63 372.69 80.4 372.69Z" fill="#f4f6fc"/>
<path transform="matrix(.4736167,0,0,.4736167,69.09562,72.883647)" d="M85.35 354.8C74.63 354.8 64.729999 353.55 55.69 351.05L57.269998 345.36C78.81 351.33 105.77 349.75 137.39 340.68L139.02 346.35C119.4 351.98 101.45 354.8 85.35 354.8Z" fill="#f4f6fc"/>
<path transform="matrix(.4736167,0,0,.4736167,69.09562,72.883647)" d="M90.4 338.04C80.740009 338.04 71.33 337.27003 62.520006 335.7L63.560007 329.89C87.270008 334.11003 115.51001 332.36003 141.02 325.07L142.64 330.74003C125.75 335.57 107.67 338.04 90.4 338.04Z" fill="#f4f6fc"/>
<path transform="matrix(.4736167,0,0,.4736167,69.09562,72.883647)" d="M87.66 324.15C81.26 324.15 74.96001 323.86 68.840007 323.28L69.4 317.41C93.66 319.71 121 317.24 144.4 310.64L146 316.32C127.83 321.44 107.34 324.15 87.66 324.15Z" fill="#f4f6fc"/>
<path transform="matrix(.4736167,0,0,.4736167,69.09562,72.883647)" d="M81.35 311.39C79.119998 311.39 76.9 311.36003 74.69 311.31004L74.83 305.41004C100.130008 306.01005 126.630008 303.05006 147.53 297.27003L149.1 302.96003C129.51 308.38 105.15 311.39 81.35 311.39Z" fill="#f4f6fc"/>
<path transform="matrix(.4736167,0,0,.4736167,69.09562,72.883647)" d="M80.02 299.82V293.92C102.75 293.92 129.73 290.45 150.45999 284.87004L151.99999 290.57005C130.48 296.36 103.58 299.82 80.02 299.82Z" fill="#f4f6fc"/>
<path transform="matrix(.4736167,0,0,.4736167,69.09562,72.883647)" d="M90.26 288.95C88.41 288.95 86.590007 288.91 84.79 288.83003L85.05 282.94C107.170009 283.93 134.3 278.25 153.18 273.32L154.67 279.03C136.92 283.67 111.95 288.95 90.26 288.95Z" fill="#f4f6fc"/>
<path transform="matrix(.4736167,0,0,.4736167,69.09562,72.883647)" d="M93.43 278.43C92.05 278.43 90.71 278.4 89.4 278.35L89.630008 272.45C105.33 273.06 126.950008 269.82 155.74 262.55003L157.19 268.27003C130.19 275.09 109.27 278.43 93.43 278.43Z" fill="#f4f6fc"/>
<path transform="matrix(.4736167,0,0,.4736167,69.09562,72.883647)" d="M93.82 268.36V262.46C113.07 262.46 139.42 257.03999 158.13 252.48999L159.52 258.22C140.5 262.84 113.65 268.36 93.82 268.36Z" fill="#f4f6fc"/>
<path transform="matrix(.4736167,0,0,.4736167,69.09562,72.883647)" d="M229.95 403.49C201.22 383.41999 172.51999 389.03999 140.67 397.8L139.09999 392.11C172.40999 382.94999 202.48999 377.11 233.31999 398.65L229.95 403.49Z" fill="#f4f6fc"/>
<path transform="matrix(.4736167,0,0,.4736167,69.09562,72.883647)" d="M229.96 384.28C201.6 364.58 173.46 369.98 144.72 377.81L143.17 372.12C172.11 364.22999 202.9 358.3 233.33 379.43L229.96 384.28Z" fill="#f4f6fc"/>
<path transform="matrix(.4736167,0,0,.4736167,69.09562,72.883647)" d="M229.97 366.73C202.08 347.45 174.39 352.61003 148.42 359.55003L146.9 353.85C173.01 346.87 203.37 341.16 233.32999 361.87L229.97 366.73Z" fill="#f4f6fc"/>
<path transform="matrix(.4736167,0,0,.4736167,69.09562,72.883647)" d="M229.97 350.63C205.34 333.68 180.91 335.25 151.8 342.81L150.32 337.1C176.86002 330.2 205.29001 326.48 233.31 345.77003L229.97 350.63Z" fill="#f4f6fc"/>
<path transform="matrix(.4736167,0,0,.4736167,69.09562,72.883647)" d="M229.98 335.8C204.43 318.28999 178.81 321.41999 154.93 327.40998L153.48999 321.68998C178.70999 315.36 205.82999 312.09999 233.31 330.93998L229.98 335.8Z" fill="#f4f6fc"/>
<path transform="matrix(.4736167,0,0,.4736167,69.09562,72.883647)" d="M229.98 322.1C208.58 307.49003 187.69 304.91 157.9 313.17L156.31999 307.48C187.98999 298.69 210.29 301.51 233.29999 317.22L229.98 322.1Z" fill="#f4f6fc"/>
<path transform="matrix(.4736167,0,0,.4736167,69.09562,72.883647)" d="M229.98 309.41C209.4 295.42 187.36 292.43 160.60999 300.02L158.99999 294.34C187.55998 286.24 211.16999 289.47 233.29999 304.53L229.98 309.41Z" fill="#f4f6fc"/>
<path transform="matrix(.4736167,0,0,.4736167,69.09562,72.883647)" d="M229.99 297.27C209.82 283.59999 188.57 280.59999 163.13 287.83L161.52 282.15C188.77 274.41 211.58 277.66 233.31 292.38L229.99 297.27Z" fill="#f4f6fc"/>
<path transform="matrix(.4736167,0,0,.4736167,69.09562,72.883647)" d="M229.72 285.25C213.52 271.27 191.92 268.31 165.53 276.46L163.79 270.81999C191.84999 262.14997 215.98 265.59999 233.57999 280.77998L229.72 285.25Z" fill="#f4f6fc"/>
<path transform="matrix(.4736167,0,0,.4736167,69.09562,72.883647)" d="M229.71 272.67C212.33 257.59004 194.48001 258.67 167.61002 265.92L166.07003 260.22C194.23003 252.62 214.30002 251.49 233.57003 268.21L229.71 272.67Z" fill="#f4f6fc"/>
<path transform="matrix(.4736167,0,0,.4736167,69.09562,72.883647)" d="M229.51 261.11C217.01 247.98999 194.75 246.05998 169.98 255.93999L167.79 250.45999C194.87999 239.65 219.54999 242.10999 233.76999 257.03999L229.51 261.11Z" fill="#f4f6fc"/>
<path transform="matrix(.4736167,0,0,.4736167,69.09562,72.883647)" d="M247.05 438.47V261.86L247.47 261.15998C270.99 221.91997 294.51 227.82997 327.07 236.00998 350.4 241.86998 379.45 249.16999 418.06 241.87998L420.35 241.44998 500 420.02 496.56 420.86C433.2 436.28 393.71 425.93998 361.99 417.63999 324.86 407.91999 298.03 400.88999 251.75 435.00999L247.05 438.47ZM252.95 263.5V426.88C298.72999 394.97 327.45 402.49 363.49 411.92 430.52 429.47 463.50999 422.77003 491.72999 415.95L416.86 248.09001C378.12 254.91002 349.06999 247.61002 325.62998 241.73001 293.52 233.67 274.06 228.78 252.95 263.5Z" fill="#f4f6fc"/>
<path transform="matrix(.4736167,0,0,.4736167,69.09562,72.883647)" d="M466.59 462.7H247.05V432.63H252.95V456.8H463.61L493.49 416.24 498.24 419.74 466.59 462.7Z" fill="#f4f6fc"/>
<path transform="matrix(.4736167,0,0,.4736167,69.09562,72.883647)" d="M430.61 409.44C428.87 409.44 427.18 409.41 425.55 409.37 408.96 408.88999 389.66999 406.07 373.94 401.84L375.47 396.13999C407.44 404.74998 450.87 407.00999 464.56 396.62998L468.13 401.33C459.53 407.85 443.84 409.44 430.61 409.44Z" fill="#f4f6fc"/>
<path transform="matrix(.4736167,0,0,.4736167,69.09562,72.883647)" d="M422.15 390.09C406.86 390.09 389.19 387.3 369.24 381.72L370.83 376.04C407.9 386.41 436.53999 386.92 455.94999 377.54L458.52 382.85C448.52 387.68 436.36 390.09 422.15 390.09Z" fill="#f4f6fc"/>
<path transform="matrix(.4736167,0,0,.4736167,69.09562,72.883647)" d="M419.6 372.69C401.37 372.69 382.82 368.39 364.93 363.29L366.55 357.62C394.38999 365.56 423.81999 371.54 450.38 361.55L452.46 367.06999C441.77 371.08 430.74 372.69 419.6 372.69Z" fill="#f4f6fc"/>
<path transform="matrix(.4736167,0,0,.4736167,69.09562,72.883647)" d="M414.65 354.8C398.55 354.8 380.61 351.97999 360.99 346.34999L362.62 340.67997C394.24 349.74998 421.19 351.32997 442.74 345.35997L444.31999 351.04997C435.27 353.55 425.37 354.8 414.65 354.8Z" fill="#f4f6fc"/>
<path transform="matrix(.4736167,0,0,.4736167,69.09562,72.883647)" d="M409.6 338.04C392.33003 338.04 374.26 335.57 357.36003 330.74003L358.98 325.07C384.5 332.36003 412.73 334.12 436.44 329.89L437.48 335.7C428.66 337.27 419.26 338.04 409.6 338.04Z" fill="#f4f6fc"/>
<path transform="matrix(.4736167,0,0,.4736167,69.09562,72.883647)" d="M412.34 324.15C392.66 324.15 372.18 321.44999 354 316.32L355.6 310.64C379 317.24003 406.34 319.71003 430.6 317.41L431.16 323.28C425.04 323.86 418.73 324.15 412.34 324.15Z" fill="#f4f6fc"/>
<path transform="matrix(.4736167,0,0,.4736167,69.09562,72.883647)" d="M418.65 311.39C394.85 311.39 370.5 308.38 350.9 302.96003L352.47 297.27003C373.37 303.05003 399.87 306.01 425.16999 305.41004L425.31 311.31004C423.1 311.36 420.87 311.39 418.65 311.39Z" fill="#f4f6fc"/>
<path transform="matrix(.4736167,0,0,.4736167,69.09562,72.883647)" d="M419.98 299.82C396.42 299.82 369.52003 296.36003 348.01 290.56L349.55003 284.86C370.27003 290.43998 397.26 293.90998 419.99003 293.90998V299.82H419.98Z" fill="#f4f6fc"/>
<path transform="matrix(.4736167,0,0,.4736167,69.09562,72.883647)" d="M409.74 288.95C388.05 288.95 363.08 283.67 345.32 279.03L346.81 273.32C365.68 278.26 392.83 283.93 414.94 282.94L415.2 288.83003C413.42 288.91 411.59 288.95 409.74 288.95Z" fill="#f4f6fc"/>
<path transform="matrix(.4736167,0,0,.4736167,69.09562,72.883647)" d="M406.57 278.43C390.73 278.43 369.81 275.09 342.82 268.27L344.27003 262.55C373.06004 269.81999 394.68003 273.06999 410.38 272.44999L410.61003 278.34999C409.3 278.4 407.95 278.43 406.57 278.43Z" fill="#f4f6fc"/>
<path transform="matrix(.4736167,0,0,.4736167,69.09562,72.883647)" d="M406.18 268.36C386.35 268.36 359.5 262.84 340.47 258.21998L341.86003 252.48998C360.58003 257.03999 386.93003 262.45997 406.17 262.45997V268.36H406.18Z" fill="#f4f6fc"/>
<path transform="matrix(.4736167,0,0,.4736167,69.09562,72.883647)" d="M270.05 403.49 266.66999 398.65C297.49998 377.12 327.58 382.94999 360.88999 392.11L359.31999 397.8C327.48 389.04 298.78 383.42 270.05 403.49Z" fill="#f4f6fc"/>
<path transform="matrix(.4736167,0,0,.4736167,69.09562,72.883647)" d="M270.04 384.28 266.67 379.43C297.09004 358.3 327.89 364.22999 356.83003 372.12L355.28004 377.81C326.54 369.99 298.4 364.59 270.04 384.28Z" fill="#f4f6fc"/>
<path transform="matrix(.4736167,0,0,.4736167,69.09562,72.883647)" d="M270.04 366.73 266.68003 361.88C296.64 341.17 327.00004 346.88 353.11003 353.86003L351.59004 359.56004C325.62 352.62 297.93 347.45 270.04 366.73Z" fill="#f4f6fc"/>
<path transform="matrix(.4736167,0,0,.4736167,69.09562,72.883647)" d="M270.03 350.63 266.69 345.77003C294.72 326.48 323.14 330.21003 349.68 337.1L348.19999 342.81C319.09 335.25 294.66 333.69 270.03 350.63Z" fill="#f4f6fc"/>
<path transform="matrix(.4736167,0,0,.4736167,69.09562,72.883647)" d="M270.03 335.8 266.69 330.93C294.17 312.1 321.29 315.36 346.51 321.68L345.07 327.4C321.2 321.42 295.58 318.29 270.03 335.8Z" fill="#f4f6fc"/>
<path transform="matrix(.4736167,0,0,.4736167,69.09562,72.883647)" d="M270.02 322.1 266.69 317.23C289.7 301.52003 312 298.7 343.67 307.49003L342.09004 313.18003C312.31 304.91 291.42 307.5 270.02 322.1Z" fill="#f4f6fc"/>
<path transform="matrix(.4736167,0,0,.4736167,69.09562,72.883647)" d="M270.02 309.41 266.69999 304.53C288.83 289.48 312.43998 286.24 341 294.34L339.39 300.02C312.63 292.43 290.59 295.42 270.02 309.41Z" fill="#f4f6fc"/>
<path transform="matrix(.4736167,0,0,.4736167,69.09562,72.883647)" d="M270.01 297.27 266.7 292.38999C288.43003 277.65998 311.24003 274.40998 338.49003 282.15998L336.88005 287.83998C311.43 280.59 290.18 283.59 270.01 297.27Z" fill="#f4f6fc"/>
<path transform="matrix(.4736167,0,0,.4736167,69.09562,72.883647)" d="M270.29 285.25 266.43003 280.78C284.02003 265.6 308.16004 262.15 336.22004 270.82L334.48005 276.46003C308.08 268.31 286.49 271.27 270.29 285.25Z" fill="#f4f6fc"/>
<path transform="matrix(.4736167,0,0,.4736167,69.09562,72.883647)" d="M270.29 272.67 266.42 268.21003C285.7 251.49002 305.77003 252.62003 333.92 260.22004L332.38 265.92005C305.52 258.67 287.67 257.6 270.29 272.67Z" fill="#f4f6fc"/>
<path transform="matrix(.4736167,0,0,.4736167,69.09562,72.883647)" d="M270.49 261.11 266.22 257.03999C280.45 242.10999 305.12 239.64998 332.2 250.45998L330.01 255.93997C305.25 246.05 283 247.99 270.49 261.11Z" fill="#f4f6fc"/>
<path transform="matrix(.4736167,0,0,.4736167,69.09562,72.883647)" d="M250 215.96C239.67 215.96 230.91 207.69 228.17 195.62001 222.05 193.77 217.13 189.36002 213.88 182.77L208.88 172.66 218.29001 166.44C221.32 164.44 223.44 160.5 223.44 156.86V125.71L226.76001 120.409999V108.619998H218.74C216.32 108.619998 213.62001 110.02 212.18001 112.02L205.51001 121.24 195.58002 115.689998C192.69002 114.06999 187.77002 110.509998 185.67002 104.159999 177.1 100.979999 172.50002 92.34 172.50002 85.38 172.50002 78.42 177.10002 69.78 185.67002 66.6 187.77002 60.26 192.69002 56.69 195.58002 55.07L205.51001 49.52 212.18001 58.74C213.63 60.74 216.32 62.140005 218.74 62.140005H226.76001V46.25C226.76001 43.83 225.36002 41.13 223.36002 39.69L214.14002 33.019998 219.69002 23.089997C222.46002 18.139996 226.42002 14.729997 231.23001 13.159996 234.42 4.6 243.05 0 250 0 256.96 0 265.59 4.6 268.78 13.16 273.58 14.73 277.55 18.14 280.31 23.09L285.86 33.02 276.63999 39.690004C274.63999 41.140005 273.24 43.83 273.24 46.250005V62.140005H281.25999C283.68 62.140005 286.37998 60.74 287.81999 58.74L294.49 49.52 304.41999 55.07C307.31 56.69 312.22999 60.25 314.33 66.6 322.9 69.78 327.5 78.42 327.5 85.38 327.5 92.34 322.9 100.979999 314.33 104.159999 312.22999 110.5 307.31 114.06999 304.41999 115.689998L294.49 121.24 287.81999 112.02C286.36997 110.02 283.67997 108.619998 281.25999 108.619998H273.24V120.409999L276.56 125.71V156.86C276.56 160.5 278.68 164.44 281.71 166.44L291.12 172.66 286.12 182.77C282.86 189.36 277.94999 193.77 271.83 195.62001 269.09 207.7 260.33 215.96 250 215.96ZM216.47 174.72 219.16 180.16C221.92 185.74 226.12001 189.26001 231.3 190.34L233.27 190.75 233.61 192.74C235.31 202.78 242.2 210.07 250 210.07 257.8 210.07 264.69 202.78002 266.39 192.75L266.73 190.76 268.7 190.34999C273.88 189.27999 278.07 185.76 280.84004 180.16999L283.53004 174.72998 278.46003 171.37998C273.80003 168.29998 270.67 162.46997 270.67 156.87998V127.419979L267.35 122.11997V102.72997H281.27003C285.6 102.72997 290.05003 105.01997 292.61003 108.56998L296.2 113.529979 301.55003 110.53998C304.34004 108.97998 307.91 106.08998 309.06004 101.169979L309.46003 99.45998 311.15003 98.99998C318.37004 97.01997 321.61003 89.849979 321.61003 85.379978 321.61003 80.919979 318.36003 73.74998 311.15003 71.75997L309.46003 71.29997 309.06004 69.58997C307.91004 64.669979 304.34004 61.779973 301.55003 60.219976L296.2 57.229974 292.61003 62.189973C290.05003 65.739978 285.59004 68.02997 281.27003 68.02997H267.35V46.25C267.35 41.92 269.64 37.47 273.19 34.91L278.16 31.32 275.17 25.97C272.93003 21.949999 269.69 19.349999 265.80003 18.449999L264.09004 18.05 263.62004 16.359999C261.63 9.14 254.46 5.9 250 5.9 245.54 5.9 238.37 9.14 236.39 16.35L235.92 18.04 234.20999 18.44C230.32999 19.34 227.09 21.94 224.84 25.960001L221.84999 31.310002 226.81 34.9C230.36 37.47 232.65 41.920003 232.65 46.24V68.03H218.73C214.4 68.03 209.95 65.74 207.39 62.19L203.8 57.23 198.45 60.22C195.66 61.780004 192.09 64.67 190.94 69.590007L190.54001 71.3 188.85 71.76C181.63 73.740009 178.39 80.91 178.39 85.380008 178.39 89.840007 181.64 97.020008 188.85 99.00001L190.54001 99.46001 190.94 101.170009C192.09 106.090007 195.66 108.98 198.45 110.54001L203.8 113.53001 207.39 108.57001C209.95 105.020008 214.41 102.73001 218.73 102.73001H232.65V122.12001L229.32999 127.42001V156.88C229.32999 162.47 226.19998 168.3 221.54 171.38L216.47 174.72Z" fill="#f4f6fc"/>
<path transform="matrix(.4736167,0,0,.4736167,69.09562,72.883647)" d="M250 206.13C243.1 206.13 237.46 198.46 237.15 188.67002L237.09 186.73001 235.15 186.76001C231.37999 186.86002 226.17 185.46 222.68999 178.42002L221.54 176.09001 223.70999 174.65001C229.51999 170.81002 233.26999 163.83002 233.26999 156.87001V128.55002L236.59 123.250019V98.79H218.73999C213.10999 98.79 207.54 101.65 204.20999 106.26L202.67 108.39 200.38 107.11C196.42 104.9 194.45001 101.7 194.51001 97.6L194.54001 95.659999 192.6 95.6C185.34001 95.369998 182.32 88.83 182.32 85.38 182.32 81.93 185.33 75.39 192.6 75.159999L194.54001 75.1 194.51001 73.159999C194.44 69.06 196.42002 65.85999 200.38 63.649995L202.67 62.369997 204.20999 64.49999C207.54 69.10999 213.10999 71.96999 218.73999 71.96999H236.59V46.25C236.59 40.62 233.73 35.05 229.12 31.720002L226.98999 30.18 228.26999 27.89C230.48 23.93 233.65999 21.949999 237.77999 22.02L239.71999 22.050002 239.77999 20.11C240.00998 12.85 246.54999 9.830001 249.99999 9.830001 253.44998 9.830001 259.99 12.840001 260.21998 20.11L260.27998 22.050002 262.21998 22.02C262.27998 22.02 262.33998 22.02 262.38999 22.02 266.41999 22.02 269.55 23.99 271.72999 27.89L273.00999 30.18 270.87998 31.720002C266.27 35.050004 263.40998 40.620004 263.40998 46.25V71.97H281.25999C286.88999 71.97 292.46 69.11 295.78999 64.5L297.33 62.37 299.62 63.649999C303.58 65.86 305.56 69.06 305.49 73.159999L305.46 75.1 307.4 75.159999C314.66 75.39 317.68 81.92999 317.68 85.38 317.68 88.829998 314.66999 95.369998 307.4 95.6L305.46 95.659999 305.49 97.6C305.56 101.7 303.58 104.9 299.62 107.11L297.33 108.39 295.78999 106.26C292.46 101.65 286.88999 98.79 281.25999 98.79H263.40998V123.240009L266.72999 128.54001V156.86002C266.72999 163.82003 270.47999 170.80002 276.28999 174.64002L278.46 176.08002 277.31 178.41002C273.82 185.47002 268.58 186.85002 264.83 186.75002L262.90998 186.72002 262.84999 188.66002C262.54 198.46 256.9 206.13 250 206.13ZM242.81 180.73 243.05 188.48C243.27 195.4 246.89 200.23 250 200.23 253.11 200.23 256.74 195.40999 256.95 188.48L257.19 180.73 264.94 180.86C266.56 180.9 268.76 180.58 270.77 177.88 264.66 172.78 260.83 164.81 260.83 156.87001V130.24L257.50999 124.94V92.89H281.25999C287.75999 92.89 294.18 95.74 298.65998 100.49 299.61997 99.39 299.59999 98.38 299.58998 97.7L299.45997 89.95 307.20997 89.71C311.28996 89.58 311.76997 85.43 311.76997 85.39 311.76997 85.35 311.28996 81.2 307.20997 81.07L299.45997 80.83 299.58998 73.08C299.59999 72.39 299.61997 71.380008 298.65998 70.28 294.17997 75.02 287.75999 77.88 281.25999 77.88H257.50999V46.25C257.50999 39.760004 260.36 33.33 265.09999 28.85 264.00999 27.89 262.99998 27.91 262.30998 27.92L254.55997 28.05 254.31996 20.3C254.18996 16.22 250.03997 15.74 249.99996 15.74 249.95995 15.74 245.80995 16.22 245.67995 20.3L245.43994 28.05 237.68994 27.92C236.99994 27.91 235.98995 27.89 234.88994 28.85 239.62995 33.33 242.48995 39.75 242.48995 46.25V77.87H218.73995C212.23995 77.87 205.81995 75.020008 201.33995 70.270008 200.37995 71.36 200.38996 72.380008 200.40996 73.07001L200.53997 80.82001 192.78997 81.060009C188.70996 81.19 188.22997 85.340007 188.22997 85.380008 188.22997 85.420009 188.70996 89.57001 192.78997 89.700008L200.53997 89.94 200.40996 97.69C200.39997 98.380008 200.37996 99.39 201.33995 100.490009 205.81995 95.75001 212.23995 92.89001 218.73995 92.89001H242.48995V124.94L239.16994 130.24V156.87001C239.16994 164.82 235.33994 172.78002 229.23993 177.88 231.24993 180.58 233.43993 180.90001 235.04993 180.86L242.81 180.73Z" fill="#f4f6fc"/>
<path transform="matrix(.4736167,0,0,.4736167,69.09562,72.883647)" d="M247.06 234.37V234.35L252.96 234.33 247.06 234.37Z" fill="#f4f6fc"/>
<path transform="matrix(.3348917,-.33490343,.33490343,.3348917,76.63577,210.3908)" d="M335.11 123H381.73V128.9H335.11Z" fill="#f4f6fc"/>
<path transform="matrix(.33461104,-.33518384,.33518384,.33461104,63.190736,204.9331)" d="M324.86 151.48H335.01V157.38H324.86Z" fill="#f4f6fc"/>
<path transform="matrix(.3349443,-.3348508,.3348508,.3349443,46.14669,197.74748)" d="M261.13 187.36H327V193.26H261.13Z" fill="#f4f6fc"/>
<path transform="matrix(.18177207,-.43734614,.43734614,.18177207,93.39969,240.01438)" d="M274.74 135.04H305.37V140.94H274.74Z" fill="#f4f6fc"/>
<path transform="matrix(.4736167,0,0,.4736167,69.09562,72.883647)" d="M440.89 158.34 438.68003 152.87C441.59004 151.69 444.50004 150.53 447.42 149.37999L449.58003 154.87C446.68 156.02 443.78 157.17 440.89 158.34Z" fill="#f4f6fc"/>
<path transform="matrix(.4736167,0,0,.4736167,69.09562,72.883647)" d="M424.76 165 422.48 159.56C424.32 158.79 426.16 158.02 428 157.25L430.26 162.7C428.43 163.46 426.6 164.23 424.76 165Z" fill="#f4f6fc"/>
<path transform="matrix(.4365809,-.18360242,.18360242,.4365809,50.922315,150.70005)" d="M361.24 174.32H414.84V180.22H361.24Z" fill="#f4f6fc"/>
<path transform="matrix(.44022668,-.17468035,.17468035,.44022668,46.877309,140.18126)" d="M343.35 190.8H353.09V196.7H343.35Z" fill="#f4f6fc"/>
<path transform="matrix(.43753944,-.18130633,.18130633,.43753944,41.918699,136.08589)" d="M277.82 207.95H335.42V213.85H277.82Z" fill="#f4f6fc"/>
<path transform="matrix(.2631273,-.39379785,.39379785,.2631273,120.73198,229.65203)" d="M354.76 60.57H373.54V66.47H354.76Z" fill="#f4f6fc"/>
<path transform="matrix(.2749835,-.3856123,.3856123,.2749835,104.78529,224.47983)" d="M344.07 83.95H352.69V89.85H344.07Z" fill="#f4f6fc"/>
<path transform="matrix(.26230199,-.3943481,.3943481,.26230199,83.37768,226.1388)" d="M278.95 130.7H355.05V136.6H278.95Z" fill="#f4f6fc"/>
<path transform="matrix(.4645227,-.0923656,.0923656,.4645227,55.342096,116.62924)" d="M448.31 190.71H460.85V196.61H448.31Z" fill="#f4f6fc"/>
<path transform="matrix(.46461279,-.09191153,.09191153,.46461279,54.876909,114.72341)" d="M433.69 194.43H437.98V200.33H433.69Z" fill="#f4f6fc"/>
<path transform="matrix(.46475975,-.091165389,.091165389,.46475975,54.52905,112.931)" d="M416.41 197.59H423.27V203.49H416.41Z" fill="#f4f6fc"/>
<path transform="matrix(.464648,-.091733139,.091733139,.464648,53.529726,110.07007)" d="M363.97 204.41H406.35V210.31H363.97Z" fill="#f4f6fc"/>
<path transform="matrix(.46433313,-.09331398,.09331398,.46433313,51.396394,104.44834)" d="M278.28 218.12H354.2V224.02H278.28Z" fill="#f4f6fc"/>
<path transform="matrix(.3937795,-.26315484,.26315484,.3937795,69.89934,192.27365)" d="M401.45 120.29H431.15V126.19H401.45Z" fill="#f4f6fc"/>
<path transform="matrix(.39241014,-.26519246,.26519246,.39241014,63.551866,187.86594)" d="M386.37 137.54H394.68V143.44H386.37Z" fill="#f4f6fc"/>
<path transform="matrix(.39385758,-.26303796,.26303796,.39385758,45.33934,172.06816)" d="M251.12 184.48H389.38V190.38H251.12Z" fill="#f4f6fc"/>
<path transform="matrix(.4736167,0,0,.4736167,69.09562,72.883647)" d="M155.99 144.52C152.58 141.12001 149.17 137.79001 145.78 134.47 138.24 127.08 130.45 119.45 122.96 111.490009L127.26 107.450008C134.67 115.32001 142.07 122.57001 149.91 130.26001 153.31 133.59001 156.73001 136.94 160.15001 140.35L155.99 144.52Z" fill="#f4f6fc"/>
<path transform="matrix(.335178,-.33461688,.33461688,.335178,40.96238,151.17131)" d="M167.12 149.36H173.02V159.51H167.12Z" fill="#f4f6fc"/>
<path transform="matrix(.32674698,-.3428544,.3428544,.32674698,33.98986,172.56147)" d="M205.62 155.92H211.52V227.56H205.62Z" fill="#f4f6fc"/>
<path transform="matrix(.43736203,-.18173389,.18173389,.43736203,51.338869,116.2416)" d="M207.72 122.53H213.62V156.92H207.72Z" fill="#f4f6fc"/>
<path transform="matrix(.4736167,0,0,.4736167,69.09562,72.883647)" d="M59.11 158.34C56.22 157.17 53.32 156.01999 50.42 154.87999L52.579999 149.38999C55.5 150.53998 58.42 151.69998 61.32 152.87999L59.11 158.34Z" fill="#f4f6fc"/>
<path transform="matrix(.4736167,0,0,.4736167,69.09562,72.883647)" d="M75.24 165C73.409999 164.23 71.579998 163.46 69.74 162.7L72 157.25C73.84 158.01 75.68 158.78 77.52 159.56L75.24 165Z" fill="#f4f6fc"/>
<path transform="matrix(.18365577,-.43655849,.43655849,.18365577,24.174122,173.15933)" d="M109.01 150.47H114.91V204.07H109.01Z" fill="#f4f6fc"/>
<path transform="matrix(.17467267,-.4402297,.4402297,.17467267,29.173619,197.61844)" d="M148.83 188.88H154.73V198.62H148.83Z" fill="#f4f6fc"/>
<path transform="matrix(.18124525,-.43756477,.43756477,.18124525,34.24292,223.62975)" d="M198.43 176.76H204.33V251.67H198.43Z" fill="#f4f6fc"/>
<path transform="matrix(.39379785,-.2631273,.2631273,.39379785,63.225088,113.69557)" d="M132.9 54.13H138.8V72.91H132.9Z" fill="#f4f6fc"/>
<path transform="matrix(.38565547,-.2749229,.2749229,.38565547,58.54276,122.212398)" d="M148.67 82.59H154.57V91.21H148.67Z" fill="#f4f6fc"/>
<path transform="matrix(.4736167,0,0,.4736167,69.09562,72.883647)" d="M198.74 162.76C182.06 137.67 159.47 103.59999 159.47 103.59999L164.39 100.33999C164.39 100.33999 186.98 134.40999 203.66 159.48999L198.74 162.76Z" fill="#f4f6fc"/>
<path transform="matrix(.092406127,-.46451465,.46451465,.092406127,-3.5437279,167.81009)" d="M42.47 187.39H48.37V199.93H42.47Z" fill="#f4f6fc"/>
<path transform="matrix(.091911558,-.46461279,.46461279,.091911558,1.8799511,178.03154)" d="M61.21 195.24H67.11V199.53H61.21Z" fill="#f4f6fc"/>
<path transform="matrix(.09112485,-.46476767,.46476767,.09112485,6.5497119,186.84671)" d="M77.21 197.11H83.11V203.97H77.21Z" fill="#f4f6fc"/>
<path transform="matrix(.091692607,-.464656,.464656,.091692607,16.607762,205.44425)" d="M111.89 186.17H117.79V228.55H111.89Z" fill="#f4f6fc"/>
<path transform="matrix(.09325727,-.4643445,.4643445,.09325727,36.332414,242.3005)" d="M180.81 183.11H186.71V259.03H180.81Z" fill="#f4f6fc"/>
<path transform="matrix(.2631273,-.39379785,.39379785,.2631273,38.18405,131.78258)" d="M80.75 108.39H86.65V138.09H80.75Z" fill="#f4f6fc"/>
<path transform="matrix(.4736167,0,0,.4736167,69.09562,72.883647)" d="M111.23 145.24C108.73 143.49 106.5 141.99 104.43 140.64L107.64 135.69C109.77 137.08 112.05 138.62 114.61 140.40001L111.23 145.24Z" fill="#f4f6fc"/>
<path transform="matrix(.26298983,-.39388968,.39388968,.26298983,33.50268,179.41362)" d="M169.8 122.04H175.7V243.45H169.8Z" fill="#f4f6fc"/>
</g>
<path transform="matrix(1,0,0,-1,0,383.03999)" d="M69.005649 80.92364H305.99436V310.15635H69.005649Z" fill-opacity="0"/>
</svg>
